<?xml version="1.0" encoding="UTF-8" standalone="no"?>
<svg
   id="Capa_1"
   viewBox="0 0 340.16001 343.57998"
   version="1.1"
   sodipodi:docname="ideckia.svg"
   width="340.16"
   height="343.57999"
   inkscape:version="1.2.2 (732a01da63, 2022-12-09)"
   xmlns:inkscape="http://www.inkscape.org/namespaces/inkscape"
   xmlns:sodipodi="http://sodipodi.sourceforge.net/DTD/sodipodi-0.dtd"
   xmlns="http://www.w3.org/2000/svg"
   xmlns:svg="http://www.w3.org/2000/svg">
  <sodipodi:namedview
     id="namedview71"
     pagecolor="#ffffff"
     bordercolor="#000000"
     borderopacity="0.25"
     inkscape:showpageshadow="2"
     inkscape:pageopacity="0.0"
     inkscape:pagecheckerboard="0"
     inkscape:deskcolor="#d1d1d1"
     showgrid="false"
     inkscape:zoom="0.99419162"
     inkscape:cx="-25.648979"
     inkscape:cy="-111.6485"
     inkscape:window-width="1680"
     inkscape:window-height="987"
     inkscape:window-x="1912"
     inkscape:window-y="29"
     inkscape:window-maximized="1"
     inkscape:current-layer="g68" />
  <defs
     id="defs4">
    <style
       id="style2">.cls-1{stroke:#974493;stroke-width:5.29px;}.cls-1,.cls-2{fill:#fff;stroke-miterlimit:10;}.cls-3{fill:#974493;}.cls-2{stroke:#1d1d1b;stroke-width:5.29px;}.cls-4{fill:#1d1d1b;}</style>
  </defs>
  <g
     id="g68"
     transform="translate(-149.89,-450.54999)">
    <rect
       class="cls-3"
       x="149.89"
       y="450.54999"
       width="340.16"
       height="343.57999"
       rx="11.7"
       ry="11.7"
       id="rect38" />
    <rect
       class="cls-1"
       x="161.45"
       y="453.23999"
       width="325.54001"
       height="325.54001"
       rx="11.14"
       ry="11.14"
       id="rect40" />
    <g
       id="g46">
      <path
         class="cls-3"
         d="m 201.74,486.56 v 78.26 h -10.22 v -78.26 z"
         id="path42" />
      <path
         class="cls-3"
         d="m 229.44,487.06 c 6.79,-1.17 15.81,-1.76 25.18,-1.76 15.11,0 24.71,2.46 32.44,7.85 8.67,5.97 14.29,15.81 14.29,30.33 0,16.16 -6.09,26.58 -13.7,32.56 -8.67,6.79 -21.67,9.72 -37.12,9.72 -10.19,0 -16.98,-0.7 -21.08,-1.41 v -77.29 z m 21.2,62.07 c 1.05,0.23 3.04,0.23 4.45,0.23 13.7,0.23 23.89,-7.38 23.89,-25.18 0,-15.46 -9.25,-22.72 -21.9,-22.72 -3.28,0 -5.39,0.23 -6.44,0.47 z"
         id="path44" />
    </g>
    <g
       id="g52">
      <polygon
         class="cls-3"
         points="384.99,491.18 350.5,499.64 350.5,552.63 384.63,561.09 384.63,565.25 328.67,565.25 328.67,487.02 384.99,487.02 "
         id="polygon48" />
      <rect
         class="cls-3"
         x="362.01001"
         y="523.21997"
         width="19.02"
         height="5.6399999"
         id="rect50" />
    </g>
    <g
       id="g58">
      <path
         class="cls-3"
         d="m 305.92,660.28 c -2.93,1.52 -10.42,3.28 -19.79,3.28 -29.51,0 -42.51,-18.39 -42.51,-39.35 0,-27.75 20.38,-41.93 43.92,-41.93 9.02,0 16.4,1.76 19.67,3.4 l -4.1,16.75 c -3.4,-1.41 -8.31,-2.81 -14.64,-2.81 -12.06,0 -22.6,7.14 -22.6,23.19 0,14.29 8.55,23.19 23.07,23.19 5.04,0 10.77,-0.94 14.05,-2.23 z"
         id="path54" />
      <path
         class="cls-3"
         d="m 329.1,583.46 h 20.96 v 33.49 h 0.23 c 1.64,-2.93 3.4,-5.86 5.04,-8.67 l 15.22,-24.83 h 26 l -25.06,33.61 26,45.32 h -24.48 l -16.63,-31.97 -6.32,8.08 v 23.89 H 329.1 v -78.93 z"
         id="path56" />
    </g>
    <g
       id="g66">
      <path
         class="cls-3"
         d="m 339.61,680.74 v 78.93 H 329.3 v -78.93 z"
         id="path60" />
      <path
         class="cls-3"
         d="m 381.89,734.84 -8.2,24.83 h -10.54 l 26.94,-78.93 h 12.18 l 26.94,78.93 h -10.89 l -8.43,-24.83 H 381.9 Z m 26,-7.96 -7.85,-22.72 c -1.76,-5.15 -2.93,-9.84 -4.1,-14.4 h -0.23 c -1.17,4.57 -2.34,9.49 -3.98,14.29 L 384,726.89 h 23.89 z"
         id="path62" />
      <path
         class="cls-3"
         d="m 449.69,753.58 c 0,-4.22 2.93,-7.38 7.03,-7.38 4.1,0 6.91,3.04 6.91,7.38 0,4.34 -2.81,7.38 -7.14,7.38 -3.98,0 -6.79,-3.16 -6.79,-7.38 z"
         id="path64" />
    </g>
    <g
       id="g348"
       transform="matrix(1.0415136,0,0,0.98203629,-85.143485,22.447576)"
       inkscape:export-filename="ico_proba\i16.png"
       inkscape:export-xdpi="12"
       inkscape:export-ydpi="12">
      <rect
         class="cls-3"
         x="253.39909"
         y="184.21083"
         width="122.89806"
         height="130.34142"
         rx="4.22715"
         ry="4.4385428"
         id="rect38-9"
         style="fill:#974493;stroke-width:0.370218" />
      <rect
         class="cls-1"
         x="257.57568"
         y="185.23131"
         width="117.61593"
         height="123.49773"
         rx="4.0248251"
         ry="4.2261"
         id="rect40-3"
         style="fill:#ffffff;stroke:#974493;stroke-width:1.95846px;stroke-miterlimit:10" />
    </g>
    <g
       id="g344"
       transform="matrix(1.352303,0,0,1.3421961,-189.79601,-59.919325)">
      <polygon
         class="cls-3"
         points="384.63,565.25 328.67,565.25 328.67,487.02 384.99,487.02 384.99,491.18 350.5,499.64 350.5,552.63 384.63,561.09 "
         id="polygon48-3-0"
         style="fill:#974493"
         transform="translate(-36.95263,-283.79439)" />
      <rect
         class="cls-3"
         x="325.0574"
         y="239.42558"
         width="19.02"
         height="5.6399999"
         id="rect50-0-5"
         style="fill:#974493" />
    </g>
  </g>
</svg>
